Coordinates
version=1
nRows=26
nColumns=30
inDegrees=yes

Units are S.I. units (second, meters, Newtons, ...)
Angles are in degrees.

endheader
time	floatyaw	floatroll	floatpitch	floatx	floaty	floatz	pro_sup_l	deviation_l	flexion_l	cmc_flexion_l	cmc_abduction_l	mp_flexion_l	ip_flexion_l	2mcp_flexion_l	2mcp_abduction_l	2pm_flexion_l	2md_flexion_l	3mcp_flexion_l	3mcp_abduction_l	3pm_flexion_l	3md_flexion_l	4mcp_flexion_l	4mcp_abduction_l	4pm_flexion_l	4md_flexion_l	5mcp_flexion_l	5mcp_abduction_l	5pm_flexion_l	5md_flexion_l
0.005000	-160.147433	-5.066637	-73.570646	-0.054891	-0.112944	-0.086841	112.583036	27.533797	-9.647794	2.484503	40.292941	-21.347256	-47.469294	34.472919	13.433744	56.800935	54.843650	46.987988	7.119193	63.297484	53.523557	44.263937	-5.808298	71.576200	62.824652	22.727825	-14.793525	73.794616	71.099375
0.015000	-160.147433	-5.066637	-73.570646	-0.054886	-0.109091	-0.086244	111.331494	27.660776	-8.633006	2.132371	40.508434	-20.938659	-47.246551	36.039863	13.736507	55.246399	54.266735	48.977915	7.106124	61.543710	53.337120	46.247448	-5.855912	69.966750	63.253669	23.871395	-14.802743	73.093916	71.430498
0.025000	-160.147433	-5.066637	-73.570646	-0.054824	-0.105126	-0.085647	110.252743	27.785966	-7.674499	2.144957	40.546557	-20.615379	-47.325731	37.164325	13.969132	53.806890	53.644625	50.478063	7.083358	59.795638	53.045892	47.777295	-5.897175	68.221118	63.636991	24.755894	-14.808037	72.370543	71.630177
0.035000	-160.147433	-5.066637	-73.570646	-0.054761	-0.101399	-0.085092	109.307620	27.910039	-6.733221	2.327018	40.498044	-20.357870	-47.701900	37.970398	14.124857	52.525917	53.070585	51.560330	7.053424	58.190192	52.798844	48.975617	-5.926019	66.485570	64.108817	25.511413	-14.804082	71.641737	71.837834
0.045000	-160.147433	-5.066637	-73.570646	-0.054720	-0.098268	-0.084604	108.468766	28.025205	-5.811431	2.524738	40.423216	-20.150893	-48.292126	38.561754	14.199982	51.411699	52.565186	52.308040	7.015279	56.786041	52.643650	49.933397	-5.937455	64.860483	64.676961	26.204516	-14.778610	70.939128	72.078529
0.055000	-160.147433	-5.066637	-73.570646	-0.054686	-0.095990	-0.084199	107.724183	28.112584	-4.960061	2.656252	40.338629	-20.002548	-48.967129	39.010971	14.207936	50.467494	52.123071	52.809023	6.970453	55.603321	52.562447	50.700480	-5.932855	63.428331	65.271839	26.835939	-14.728617	70.308114	72.313144
0.065000	-160.147433	-5.066637	-73.570646	-0.054625	-0.094640	-0.083893	107.073196	28.144565	-4.253346	2.713357	40.229499	-19.940193	-49.595921	39.358012	14.179172	49.702274	51.744406	53.140861	6.924272	54.650477	52.513220	51.289515	-5.920247	62.258704	65.803661	27.357566	-14.663894	69.794574	72.490316
0.075000	-160.147433	-5.066637	-73.570646	-0.054500	-0.094099	-0.083708	106.519753	28.092033	-3.745536	2.733624	40.073889	-19.991630	-50.083626	39.614976	14.149136	49.125725	51.439100	53.356880	6.883339	53.932632	52.456594	51.690499	-5.910306	61.396873	66.201171	27.701454	-14.600460	69.429603	72.575362
0.085000	-160.147433	-5.066637	-73.570646	-0.054289	-0.094102	-0.083672	106.066175	27.933805	-3.438448	2.759260	39.859270	-20.167616	-50.387155	39.776039	14.143526	48.735686	51.213830	53.481746	6.852140	53.444591	52.365720	51.889335	-5.911192	60.848176	66.426925	27.810489	-14.551064	69.218035	72.554530
0.095000	-160.147433	-5.066637	-73.570646	-0.053993	-0.094350	-0.083800	105.708337	27.664738	-3.280244	2.807935	39.580367	-20.459019	-50.508337	39.829488	14.169786	48.507963	51.059770	53.517829	6.831169	53.159289	52.227229	51.882159	-5.925446	60.570725	66.477456	27.659156	-14.519154	69.134867	72.427000
0.105000	-160.147433	-5.066637	-73.570646	-0.053629	-0.094602	-0.084082	105.432670	27.299450	-3.193235	2.870831	39.224462	-20.849018	-50.475422	39.768070	14.218297	48.396197	50.950996	53.457317	6.817320	53.024429	52.039721	51.680780	-5.950160	60.484463	66.376411	27.258168	-14.498866	69.132500	72.196925
0.115000	-160.147433	-5.066637	-73.570646	-0.053217	-0.094735	-0.084478	105.216292	26.870101	-3.110447	2.931930	38.761577	-21.327550	-50.324600	39.595920	14.270607	48.342409	50.852091	53.294693	6.805898	52.972747	51.811073	51.311017	-5.979526	60.494763	66.163904	26.646033	-14.479784	69.156803	71.870605
0.125000	-160.147433	-5.066637	-73.570646	-0.052776	-0.094741	-0.084920	105.031582	26.418785	-2.999234	2.988828	38.151697	-21.894180	-50.088353	39.331590	14.309184	48.292261	50.729140	53.036007	6.792955	52.940797	51.554570	50.808483	-6.007956	60.520086	65.884171	25.875953	-14.452975	69.164638	71.458342
0.135000	-160.147433	-5.066637	-73.570646	-0.052324	-0.094686	-0.085337	104.854083	25.987284	-2.862636	3.059240	37.365505	-22.547357	-49.792740	39.006295	14.324025	48.207990	50.559677	52.702337	6.776768	52.886332	51.285423	50.214340	-6.032221	60.512422	65.575050	25.004902	-14.414911	69.135207	70.978109
0.145000	-160.147433	-5.066637	-73.570646	-0.051877	-0.094647	-0.085676	104.669915	25.607956	-2.723916	3.171528	36.404154	-23.270085	-49.461231	38.657130	14.314393	48.075196	50.338717	52.326343	6.757942	52.796719	51.018794	49.571067	-6.051912	60.464307	65.261995	24.087027	-14.367829	69.072081	70.456872
0.155000	-160.147433	-5.066637	-73.570646	-0.051455	-0.094670	-0.085914	104.478861	25.298635	-2.607056	3.348591	35.305290	-24.024009	-49.118944	38.317434	14.286677	47.902920	50.078488	51.943629	6.738392	52.685879	50.768174	48.918015	-6.068426	60.401332	64.956685	23.170271	-14.317364	68.996988	69.926120
0.165000	-160.147433	-5.066637	-73.570646	-0.051081	-0.094758	-0.086058	104.292162	25.062419	-2.524224	3.596049	34.132404	-24.756397	-48.791710	38.008476	14.250459	47.717607	49.801279	51.583052	6.719999	52.581924	50.542668	48.287374	-6.083310	60.363156	64.659181	22.294296	-14.269436	68.938046	69.412367
0.175000	-160.147433	-5.066637	-73.570646	-0.050768	-0.094882	-0.086133	104.126847	24.891310	-2.474099	3.900280	32.954222	-25.415320	-48.499711	37.736207	14.214589	47.552130	49.528535	51.260352	6.703793	52.511118	50.344200	47.701486	-6.097009	60.380240	64.363166	21.488453	-14.228032	68.916023	68.928662
0.185000	-160.147433	-5.066637	-73.570646	-0.050519	-0.095002	-0.086169	103.999160	24.771600	-2.447887	4.235263	31.824795	-25.964040	-48.250793	37.494206	14.184415	47.432747	49.272299	50.977466	6.689961	52.485245	50.167614	47.171998	-6.108688	60.456788	64.063366	20.769581	-14.194394	68.934064	68.473857
0.195000	-160.147433	-5.066637	-73.570646	-0.050324	-0.095088	-0.086190	103.918778	24.688569	-2.436740	4.573338	30.772649	-26.388204	-48.038875	37.270551	14.160863	47.369437	49.033997	50.726597	6.678311	52.498141	50.004856	46.700486	-6.117105	60.569166	63.761694	20.140114	-14.167310	68.976829	68.040535
0.205000	-160.147433	-5.066637	-73.570646	-0.050161	-0.095136	-0.086212	103.884947	24.628961	-2.435962	4.894762	29.801427	-26.695211	-47.848807	37.054415	14.141585	47.354924	48.810184	50.495981	6.668592	52.532615	49.850584	46.279794	-6.121847	60.681376	63.467696	19.587737	-14.144055	69.020999	67.625188
0.215000	-160.147433	-5.066637	-73.570646	-0.050012	-0.095159	-0.086240	103.885849	24.581369	-2.445027	5.192674	28.898831	-26.908767	-47.664725	36.839376	14.123404	47.372747	48.599709	50.274558	6.660447	52.572862	49.705004	45.896145	-6.124020	60.768169	63.192527	19.088411	-14.121685	69.051422	67.232674
0.225000	-160.147433	-5.066637	-73.570646	-0.049862	-0.095185	-0.086274	103.902276	24.536008	-2.465118	5.472112	28.048191	-27.061237	-47.477621	36.623451	14.104558	47.408090	48.406563	50.054787	6.653264	52.613552	49.572417	45.532941	-6.125865	60.830135	62.941543	18.613888	-14.098300	69.071679	66.872569
0.235000	-160.147433	-5.066637	-73.570646	-0.049710	-0.095235	-0.086315	103.914738	24.485148	-2.496212	5.743609	27.237703	-27.184720	-47.289132	36.407979	14.085478	47.453173	48.237243	49.834123	6.646208	52.659189	49.457618	45.176403	-6.129524	60.890031	62.712247	18.141929	-14.073651	69.100667	66.552017
0.245000	-160.147433	-5.066637	-73.570646	-0.049557	-0.095318	-0.086360	103.910618	24.424083	-2.535178	6.014463	26.464393	-27.302252	-47.110734	36.196868	14.067949	47.504380	48.096090	49.615329	6.638492	52.715111	49.363420	44.820905	-6.135834	60.973319	62.499505	17.664269	-14.048710	69.157273	66.271580
0.255000	-160.147433	-5.066637	-73.570646	-0.049410	-0.095427	-0.086412	103.887562	24.351607	-2.575814	6.282928	25.731891	-27.422634	-46.959372	35.995780	14.053616	47.555817	47.983026	49.405006	6.629676	52.778261	49.290678	44.470600	-6.143998	61.087499	62.303183	17.187302	-14.024499	69.244824	66.026643
